#N canvas 0 22 450 300 10;
#X obj 265 120 osc~ 400;
#X obj 276 235 dac~;
#X obj 118 50 vsl 15 128 200 660 0 0 empty empty empty 0 -9 0 10 -262144
-1 -1 12700 1;
#X floatatom 218 70 5 0 0 0 - - -;
#X connect 0 0 1 0;
#X connect 2 0 3 0;
#X connect 2 0 0 0;
